<svg id="Layer_1" data-name="Layer 1" xmlns="http://www.w3.org/2000/svg" viewBox="0 0 1494 396.02"><defs><style>.cls-1{fill:#5ca949;}</style></defs><title>logo-new</title><path class="cls-1" d="M35.2,49.8q-28,29-17.21,72.79,11.6,47.1,60.36,73.56,30.68,14,45.1,19.85,40.65,17.31,44.72,33.85,7.46,30.29-46.25,30.29a296.26,296.26,0,0,1-97.16-16.29L23,333.33q59.16,18.07,117.45,18.07,57.51,0,92.75-26.47,39.89-30.29,27.16-82-12.15-49.38-75.08-80.68-28.14-13-40.4-18.33Q113.85,130.48,110,115q-6.82-27.73,40-27.74a299.86,299.86,0,0,1,80.45,11.45L232.13,33Q179.06,18,130.45,18,65.29,18,35.2,49.8Z" transform="translate(-15 -17.99)"/><path class="cls-1" d="M575.32,23.08h-90.1l-4.34,167.47q-1.2,45.81-10.05,64.65-10.9,20.87-38.13,20.87-39.7,0-49.73-40.73-3.32-13.49-2.73-32.83l4.19-179.43H294.34l-4.08,182a151.59,151.59,0,0,0,4.17,40.72q11.64,47.34,53.18,76.48t95.23,29.14q72,0,101.51-39.45,25-33.84,26.52-109.44Z" transform="translate(-15 -17.99)"/><path class="cls-1" d="M1460,18q-66.69,0-95.81,29.52-26.39,26.22-27.42,82l-4.41,216.84h90.1l3.64-167.21q1.29-54.72,12.81-71,15.22-20.86,68.41-20.87,1.34-32.83,1.66-65.67A305.5,305.5,0,0,0,1460,18Z" transform="translate(-15 -17.99)"/><ellipse class="cls-1" cx="804.26" cy="194.06" rx="17.77" ry="9" transform="translate(573.05 974.66) rotate(-88.42)"/><path class="cls-1" d="M871.27,50.82A168.62,168.62,0,0,0,800.93,21l-1.57,76.53-.47,23C821.76,129.93,838,158,837.3,191.1c-.84,40.83-27.09,74-58.48,74s-56.26-33.21-55.42-74c.68-33.09,18.05-61.17,41.31-70.62l.54-26L766.82,18h-.09Q626,18,622.42,166.88L617.06,414h90.1l2.14-91.62q38.19,29,96.22,29,75.59,0,112.75-65.15,35.16-61.86,15.81-140.49Q919.31,85.69,871.27,50.82Z" transform="translate(-15 -17.99)"/><path class="cls-1" d="M1290.91,145.76q-14.79-60.07-62.81-94.94a168.68,168.68,0,0,0-69.47-29.73l-1.58,76.74-.59,28.8c13.76,6.6,47.44,20.6,47.14,36l-1.83,93.87a8.82,8.82,0,0,1-8.82,8.65h0a8.83,8.83,0,0,1-8.83-9l1-52.27a8.82,8.82,0,0,0-8.82-9h0a8.83,8.83,0,0,0-8.83,8.66l-1,52.92a8.81,8.81,0,0,1-8.82,8.66h0a8.83,8.83,0,0,1-8.83-9l1-52.27a8.82,8.82,0,0,0-8.82-9h0a8.82,8.82,0,0,0-8.82,8.66l-1,52.92a8.82,8.82,0,0,1-8.82,8.66h0a8.83,8.83,0,0,1-8.82-9l1-52.27a8.82,8.82,0,0,0-8.82-9h0a8.82,8.82,0,0,0-8.82,8.66l-1,52.92a8.82,8.82,0,1,1-17.64-.34l1.81-93.52c.32-15.39,28.3-29.39,42.34-36L1123,94.3,1124.52,18l0,0Q982.83,17.5,979.24,166.88L973.89,414H1064l2.14-91.62q38.19,29,96.22,29,75.59,0,112.74-65.15Q1310.26,224.39,1290.91,145.76Z" transform="translate(-15 -17.99)"/></svg>